<svg id="Capa_1" enable-background="new 0 0 512 512" height="512" viewBox="0 0 512 512" width="512" xmlns="http://www.w3.org/2000/svg"><g fill="#1273eb"><path id="XMLID_3728_" d="m22.168 220.963c-3.474 3.593-6.491 7.555-8.868 11.793l-3.748-1.935c-.549-2.396-2.834-4.054-5.302-3.778-2.651.276-4.571 2.764-4.205 5.436.274 2.672 2.743 4.607 5.394 4.238.549-.092 1.006-.184 1.463-.461l3.657 1.935c-2.011 4.515-3.474 9.213-4.297 14.097l6.034 1.106c1.828-10.596 6.857-20.27 14.353-28.101z"/><path id="XMLID_3727_" d="m66.233 202.352c-1.371 0-2.743.092-4.114.092l-.549-5.067c1.463-1.198 2.377-3.133 2.103-5.252-.366-3.225-3.2-5.436-6.399-5.067-3.2.369-5.394 3.225-5.028 6.449.274 2.027 1.554 3.778 3.291 4.515l.549 5.067c-5.759.921-11.245 2.672-16.547 5.252l2.651 5.528c7.496-3.593 15.633-5.436 24.044-5.436 4.023 0 7.954.461 11.885 1.29l1.28-5.989c-4.298-.922-8.778-1.382-13.166-1.382z"/><path id="XMLID_3726_" d="m119.257 222.898c2.651-.369 4.571-2.764 4.205-5.436s-2.743-4.607-5.394-4.238c-2.468.276-4.297 2.488-4.297 4.883l-3.383 2.948c-3.383-3.501-7.131-6.542-11.336-9.213l-3.2 5.16c9.142 5.804 16.181 14.004 20.57 23.679l5.577-2.488c-2.011-4.515-4.571-8.661-7.588-12.53l3.2-2.856c.549.183 1.098.183 1.646.091z"/><path id="XMLID_3725_" d="m61.845 284.904c-3.108.184-6.217.276-9.325.276-7.039 0-13.896-.461-19.93-1.474-3.108-.461-6.765-1.29-10.239-2.396 8.411 15.018 24.684 25.245 43.242 25.245 22.947 0 42.236-15.479 47.813-36.485-5.485 3.593-12.068 6.634-19.747 9.121-9.416 3.134-20.386 5.068-31.814 5.713z"/><path id="XMLID_3702_" d="m66.233 214.605c-26.878 0-48.819 21.56-48.819 48.094 0 3.409.366 6.91 1.097 10.227 5.394 3.87 21.758 7.186 42.968 5.897 23.129-1.382 42.511-7.739 53.572-17.506 0-1.566-.183-3.133-.366-4.699-3.107-23.954-23.86-42.013-48.452-42.013zm-17.37 52.702c-8.228 0-14.81-6.726-14.81-14.926 0-8.292 6.674-14.926 14.81-14.926 8.228 0 14.81 6.726 14.81 14.926.092 8.2-6.582 14.926-14.81 14.926zm38.031-7.371c-6.034 0-10.879-4.975-10.879-10.964 0-6.081 4.937-10.964 10.879-10.964 6.034 0 10.879 4.975 10.879 10.964.092 6.081-4.845 10.964-10.879 10.964z"/><path id="XMLID_3699_" d="m194.679 229.716c-2.377-.921-6.491-2.488-11.062-1.935-4.388.553-6.765 2.764-6.765 8.108v7.002h17.918v13.912h-17.918v44.133h-15.542v-44.133h-10.788v-13.82h10.788v-7.187c0-13.636 7.222-22.481 20.661-22.481 5.12 0 9.325 1.013 12.799 2.488z"/><path id="XMLID_3697_" d="m232.527 256.711c-1.463-.276-2.834-.369-4.205-.369-7.222 0-12.159 4.422-12.159 13.083v31.602h-15.542v-58.045h14.993v6.357c3.657-5.436 9.142-7.924 16.181-7.924 3.291 0 6.765 1.013 8.776 2.764z"/><path id="XMLID_3694_" d="m294.053 271.913c0 1.751-.091 3.962-.274 5.252h-40.865c1.646 8.384 7.496 12.07 14.81 12.07 5.028 0 10.422-2.027 14.536-5.528l9.051 10.043c-6.582 6.081-14.902 8.845-24.501 8.845-17.644 0-29.895-12.07-29.895-30.404 0-18.243 11.885-30.681 29.163-30.681 16.548-.093 27.884 12.253 27.975 30.403zm-41.048-5.436h25.506c-1.463-7.463-5.851-11.609-12.525-11.609-7.404 0-11.609 4.423-12.981 11.609z"/><path id="XMLID_3682_" d="m355.488 271.913c0 1.751-.091 3.962-.274 5.252h-40.865c1.646 8.384 7.496 12.07 14.81 12.07 5.028 0 10.422-2.027 14.536-5.528l9.051 10.043c-6.582 6.081-14.902 8.845-24.501 8.845-17.644 0-29.895-12.07-29.895-30.404 0-18.243 11.885-30.681 29.163-30.681 16.547-.093 27.884 12.253 27.975 30.403zm-41.048-5.436h25.506c-1.463-7.463-5.851-11.609-12.525-11.609-7.313 0-11.61 4.423-12.981 11.609z"/><path id="XMLID_3679_" d="m422.499 271.913c0 17.413-11.976 30.589-27.883 30.589-7.771 0-13.165-3.04-16.913-7.555v30.036h-15.45v-82h15.176v6.449c3.748-4.699 9.233-7.924 17.187-7.924 15.907-.091 27.883 12.992 27.883 30.405zm-45.619 0c0 9.121 6.034 16.031 14.81 16.031 9.142 0 14.902-7.094 14.902-16.031s-5.668-16.031-14.902-16.031c-8.776.092-14.81 6.91-14.81 16.031z"/><path id="XMLID_3648_" d="m447.457 223.911c0 5.62-4.297 9.951-9.965 9.951-5.577 0-9.873-4.33-9.873-9.951s4.297-10.043 9.873-10.043c5.577 0 9.965 4.423 9.965 10.043zm-2.103 77.025h-15.542v-58.045h15.542z"/><path id="XMLID_3583_" d="m471.226 263.621 21.667-20.638h19.016l-27.975 27.272 28.066 30.681h-19.107l-21.849-23.495v23.495h-15.542v-86.238h15.542v48.923z"/></g></svg>